/* XPM */
static char *airb[] = {
/* columns rows colors chars-per-pixel */
"56 23 2 1 ",
"  c None",
". c black",
/* pixels */
"                                             .          ",
"                                         ..             ",
"                                    ....  .  .          ",
"                                      .   .  .          ",
"                      . ...           .  ........  . .  ",
"                       .     .     ................     ",
"                   .    . .        . ..  ........ .     ",
"                  ..   . .. .  .   . . .   .... . ..  . ",
"      .  .          . .. ...   ..  ..   .  . .. ..  .   ",
"    . .  .          . ....  ...     .   . ..  ...  . .  ",
"     . ...       .... .....  ..     .... ........       ",
"    . .... .    .   ...  .. ..    . .      .. ..... .  .",
"    ... . ..      .   ..... ...  .      ...  .. ..   .  ",
"    . ....         ...... ..         . . ... .. .       ",
"    ....  ..     .. .  .....          . .   ..  ..    . ",
"     ..  ..       ..   ..         .  .   ... ..    .    ",
"    .  . .       .. .      .         .  .   .     ..    ",
"                .   .               .    .. .          .",
"                     .. .         . ..  .  ..  .        ",
"                        . .           ..     .    .     ",
"                                   .  ...  .            ",
"                                        ..   .       .  ",
"                                                        "
};
