/* XPM */
static char *options_transparency[] = {
/* columns rows colors chars-per-pixel */
"35 45 14 1 ",
"  c None",
". c black",
"X c #800000",
"o c red",
"O c #008000",
"+ c green",
"@ c #808000",
"# c yellow",
"$ c navy",
"% c blue",
"& c magenta",
"* c #808080",
"= c #C0C0C0",
"- c white",
/* pixels */
"............................       ",
".##########################.       ",
".##########################.       ",
".####=$$$$*#######..#..#..#.. .. ..",
".###=$%%%%$*#####.----------------.",
".###$=%%%%%.#####.------OOOOOO*--- ",
".###$==%%%=.######-----OOOOOO=.---.",
".###$=-===$.#####.----OOOOOO=O.---.",
".###$=-%%%$.#####.---O------OO.--- ",
".###$=-%%%$.######---O-+++++OO.---.",
".###$=-%%%$.#####.---O-+++++OO.---.",
".###$=-%%%$.#XXXX.---O-+++++OO.--- ",
".###$=-%%%$XX=&o.X---O-+++++OO.***.",
".###$=-%%%$X=&ooo.---O-+++++O.****.",
".###$=-%%%X=&oooo.---O-+++++.****- ",
".###$%-%%%X=&ooooo---.......****--.",
".###=$$$$$X=&oooo.----------------.",
".####=....X=&oooo.---------------- ",
".#########*X=&oo.XX.@..#..#.. .. ..",
".##########XXXXXX..@@@@####.       ",
".###########*....*@@@=#####.       ",
".##########################.       ",
"............................       ",
".##########################.       ",
".##########################.       ",
".####=$$$$*#######..#..#..#.. .. ..",
".###=$%%%%$*#####.#########.      .",
".###$=%%%%%.#####.######OOOOOO*    ",
".###$==%%%=.###########OOOOOO=.   .",
".###$=-===$.#####.####OOOOOO=O.   .",
".###$=-%%%$.#####.###O------OO.    ",
".###$=-%%%$.#########O-+++++OO.   .",
".###$=-%%%$.#####.###O-+++++OO.   .",
".###$=-%%%$.#XXXX.###O-+++++OO.    ",
".###$=-%%%$XX=&o.XX##O-+++++OO.   .",
".###$=-%%%$X=&ooo.X*#O-+++++O.    .",
".###$=-%%%X=&oooo.X.#O-+++++.      ",
".###$%-%%%X=&oooooX.#.......      .",
".###=$$$$$X=&oooo.X.@=#####.      .",
".####=....X=&oooo.X.@@@####.       ",
".#########*X=&oo.XX.@..#..#.. .. ..",
".##########XXXXXX..@@@@####.       ",
".###########*....*@@@=#####.       ",
".##########################.       ",
"............................       "
};
