/* XPM */
static char *tools[] = {
/* columns rows colors chars-per-pixel */
"256 16 11 1 ",
"  c None",
". c black",
"X c #BF0000",
"o c #BFBF00",
"O c yellow",
"+ c #0000BF",
"@ c blue",
"# c #00BFBF",
"$ c #808080",
"% c #C0C0C0",
"& c white",
/* pixels */
"    .                                                                               ....                 ...           ..                                                             ..                                                                        ",
"    ..      .                                           ..                  ...   ..%%%%..              .XXX.         .oo.        + +  +              .          ..                    ..                           .........                                   ",
"    .      ..   . .. .. .. .. .        ......          .&.                 .%... .$&&&%%%$.             .X&&.         .oo.       +%+%+++...          ...          ..                    ..      ...............     .%%%%%%.                      ...........   ",
"       .  .     .             .       .&O&O&O.    ... .&&&..              ...... .&&%%%%%%.            ..X&.          .oo.      +%+%+ ..&&..         ...           ..                    .      .%%%%%%%%%%%%%.     .%%%%%%.        .......      .%%%%%%%%%%%.  ",
"    .   .   .                        .&O&O&O..   ...%.&&&.&&.           .........%&%%%%%%%%.           .O...          .oo.       +%+  .&&..@@        ....           ..                   .      .%%%%%%%%%%%%%.    .%%%%%%.       ..%%%%%%%..   .%%%%%%%%%%%%%. ",
"    .       .   .             .     .&O&O&O.o.  ...%.######...           ...... .%&%%%%%%%%.          .O&%.           .oo.      +%+   .&..@@@.      . ...            ..                 ..      .%%%%%%%%%%%%%.    .%%%%%%.      .%%%%%%%%%%%.  .%%%%%%%%%%%%%. ",
"                .             .    .&O&O&O.oo.  ..%.######.....         .&....  .%%%%%%%%%%.          .&O..           .oo.       +%+  ...@.@@@.     . ....            ..               ..       .%%%%%%%%%%%%%.   .%%%%%%.      .%%%%%%%%%%%%%. .%%%%%%%%%%%%%. ",
"   .        .                     .&O&O&O.oo.   ..%..#.##.....#.       .&&$..   .%%%%%%%%%%.         .&O%.           .oooo.     +%+    ...@.@@@.   .   ...             ..             ..        .%%%%%%%%%%%%%.   .%%%%%%.      .%%%%%%%%%%%%%. .%%%%%%%%%%%%%. ",
"  .          .  .             .  .&O&O&O.oo.    ...  .##.....##.      .&&$. .    .%%%%%%%&.          .O&..          .oooooo.     +      ...@.@@.   .   ....             ..           ..         .%%%%%%%%%%%%%.  .%%%%%%.       .%%%%%%%%%%%%%. .%%%%%%%%%%%%%. ",
" .            . .             . .%%%%%%.oo.     ...  .#.....##.      .&&$.       .$%%%%%&$.$        .O&%.           ........    +%+      ...@..    ........              ..         ..          .%%%%%%%%%%%%%.  .%%%%%.......  .%%%%%%%%%%%%%. .%%%%%%%%%%%%%. ",
".. ..    .. ....                .%%%%%%.o.      ...   .....##.      .&&#.         ..%%%&$+++        ..O..           ........     +        ....    .     ....              ..        .           .%%%%%%%%%%%%%.  .%%%%%%%%%%%.   .%%%%%%%%%%%.  .%%%%%%%%%%%%%. ",
"    .   .       .             . .%%%%%%..       ...    ...##.      .&&#.            ....+%+++       ....            .&&&&&&.    +          ..     .      ...               ..       .           .%%%%%%%%%%%%%. .%%%%%%%%%%%%.    ..%%%%%%%..    .%%%%%%%%%%%.  ",
"                . .. .. .. .. .  .......         ..     .##.      .&&#.                  +%+++      ...             .&$&$&&.     +              ....   .......              ..      ..          ............... .%%%%%%%%%%%%.      .......       ...........   ",
"    . .                                          ..      ..      #.##.###                 +%+++     ..              .&$&$&&.    +                                            ..      ..                         ..............                                  ",
"    ..                                            .             ##...#####                 +%++     .               .&$&$&&.                                                          ..                                                                        ",
"    .                                                            #######                    ++                     .........                                                                                                                                    "
};
